<svg width="12" height="12" viewBox="0 0 12 12" fill="none" xmlns="http://www.w3.org/2000/svg">
<path d="M8.33333 0.166664H3.66667C1.625 0.166664 0.75 1.33333 0.75 3.08333V8.91666C0.75 10.6667 1.625 11.8333 3.66667 11.8333H8.33333C10.375 11.8333 11.25 10.6667 11.25 8.91666V3.08333C11.25 1.33333 10.375 0.166664 8.33333 0.166664ZM3.66667 6.14583H6C6.23917 6.14583 6.4375 6.34416 6.4375 6.58333C6.4375 6.8225 6.23917 7.02083 6 7.02083H3.66667C3.4275 7.02083 3.22917 6.8225 3.22917 6.58333C3.22917 6.34416 3.4275 6.14583 3.66667 6.14583ZM8.33333 9.35416H3.66667C3.4275 9.35416 3.22917 9.15583 3.22917 8.91666C3.22917 8.6775 3.4275 8.47916 3.66667 8.47916H8.33333C8.5725 8.47916 8.77083 8.6775 8.77083 8.91666C8.77083 9.15583 8.5725 9.35416 8.33333 9.35416ZM9.79167 4.39583H8.625C7.73833 4.39583 7.02083 3.67833 7.02083 2.79166V1.625C7.02083 1.38583 7.21917 1.1875 7.45833 1.1875C7.6975 1.1875 7.89583 1.38583 7.89583 1.625V2.79166C7.89583 3.19416 8.2225 3.52083 8.625 3.52083H9.79167C10.0308 3.52083 10.2292 3.71916 10.2292 3.95833C10.2292 4.1975 10.0308 4.39583 9.79167 4.39583Z" fill="#9599D8"/>
</svg>
