<svg width="9" height="6" viewBox="0 0 9 6" fill="none" xmlns="http://www.w3.org/2000/svg">
<path d="M2.1875 5.73562C1.81297 5.73562 1.49396 5.6337 1.23047 5.42987C0.966975 5.22437 0.765625 4.92691 0.626421 4.53746C0.487216 4.14637 0.417614 3.67406 0.417614 3.12056C0.417614 2.57037 0.487216 2.10056 0.626421 1.71111C0.767282 1.32002 0.96946 1.02172 1.23295 0.816228C1.49811 0.609078 1.81629 0.505504 2.1875 0.505504C2.55871 0.505504 2.87607 0.609078 3.13956 0.816228C3.40471 1.02172 3.60689 1.32002 3.74609 1.71111C3.88696 2.10056 3.95739 2.57037 3.95739 3.12056C3.95739 3.67406 3.88778 4.14637 3.74858 4.53746C3.60938 4.92691 3.40803 5.22437 3.14453 5.42987C2.88104 5.6337 2.56203 5.73562 2.1875 5.73562ZM2.1875 5.18874C2.55871 5.18874 2.84706 5.00977 3.05256 4.65181C3.25805 4.29386 3.3608 3.78344 3.3608 3.12056C3.3608 2.67975 3.31357 2.30439 3.21911 1.9945C3.1263 1.6846 2.99207 1.44845 2.81641 1.28604C2.6424 1.12364 2.43277 1.04244 2.1875 1.04244C1.8196 1.04244 1.53208 1.2239 1.32493 1.58682C1.11778 1.94809 1.0142 2.45934 1.0142 3.12056C1.0142 3.56138 1.06061 3.9359 1.15341 4.24414C1.24621 4.55238 1.37962 4.78687 1.55362 4.94762C1.72929 5.10837 1.94058 5.18874 2.1875 5.18874ZM6.5625 5.73562C6.18797 5.73562 5.86896 5.6337 5.60547 5.42987C5.34197 5.22437 5.14063 4.92691 5.00142 4.53746C4.86222 4.14637 4.79261 3.67406 4.79261 3.12056C4.79261 2.57037 4.86222 2.10056 5.00142 1.71111C5.14228 1.32002 5.34446 1.02172 5.60796 0.816228C5.87311 0.609078 6.19129 0.505504 6.5625 0.505504C6.93371 0.505504 7.25107 0.609078 7.51456 0.816228C7.77971 1.02172 7.98189 1.32002 8.12109 1.71111C8.26196 2.10056 8.33239 2.57037 8.33239 3.12056C8.33239 3.67406 8.26278 4.14637 8.12358 4.53746C7.98438 4.92691 7.78303 5.22437 7.51953 5.42987C7.25604 5.6337 6.93703 5.73562 6.5625 5.73562ZM6.5625 5.18874C6.93371 5.18874 7.22207 5.00977 7.42756 4.65181C7.63305 4.29386 7.7358 3.78344 7.7358 3.12056C7.7358 2.67975 7.68857 2.30439 7.59411 1.9945C7.5013 1.6846 7.36707 1.44845 7.19141 1.28604C7.0174 1.12364 6.80777 1.04244 6.5625 1.04244C6.1946 1.04244 5.90708 1.2239 5.69993 1.58682C5.49278 1.94809 5.38921 2.45934 5.38921 3.12056C5.38921 3.56138 5.43561 3.9359 5.52841 4.24414C5.62121 4.55238 5.75462 4.78687 5.92862 4.94762C6.10429 5.10837 6.31558 5.18874 6.5625 5.18874Z" fill="#898995"/>
</svg>
