<svg width="12" height="13" viewBox="0 0 12 13" fill="none" xmlns="http://www.w3.org/2000/svg">
<path d="M7.58666 1.95893C6.66074 1.81541 5.7163 1.81541 4.79038 1.95893C4.41075 2.01911 4.13296 2.34318 4.13296 2.72281V4.42651H2.42926C2.04963 4.42651 1.72556 4.7043 1.66538 5.08393C1.52186 6.00985 1.52186 6.95429 1.66538 7.88021C1.72556 8.25984 2.04963 8.53763 2.42926 8.53763H3.20704C3.33667 8.53763 3.43852 8.43577 3.43852 8.30614V7.50985C3.43852 6.56077 4.21167 5.78763 5.16074 5.78763H7.2163C7.40148 5.78763 7.54963 5.63948 7.54963 5.45429V3.96355C7.54963 3.83392 7.65149 3.73207 7.78111 3.73207H8.0126C8.14223 3.73207 8.24408 3.63022 8.24408 3.50059V2.72281C8.24408 2.34318 7.96629 2.01911 7.58666 1.95893ZM5.41537 3.50984C5.22555 3.50984 5.045 3.32929 5.045 3.13948C5.045 2.94503 5.22555 2.76448 5.41537 2.76448C5.50796 2.76448 5.60982 2.80615 5.67464 2.87096C5.74408 2.93578 5.79038 3.04225 5.79038 3.13948C5.79038 3.32929 5.60981 3.50984 5.41537 3.50984Z" fill="white"/>
<path opacity="0.8" d="M10.7116 5.08393C10.6514 4.7043 10.3274 4.42651 9.94775 4.42651H8.47553C8.3459 4.42651 8.24405 4.52837 8.24405 4.658V5.45429C8.24405 6.01911 7.78571 6.48207 7.21627 6.48207H5.16071C4.59127 6.48207 4.13293 6.9404 4.13293 7.50985V10.2413C4.13293 10.621 4.41072 10.945 4.79035 11.0052C5.71627 11.1487 6.66071 11.1487 7.58663 11.0052C7.96626 10.945 8.24405 10.621 8.24405 10.2413V8.53763H9.94775C10.3274 8.53763 10.6514 8.25984 10.7116 7.88021C10.8552 6.95429 10.8552 6.00985 10.7116 5.08393ZM6.96165 10.1997C6.77183 10.1997 6.58663 10.0191 6.58663 9.82466C6.58663 9.63022 6.7672 9.44966 6.96165 9.44966C7.04961 9.44966 7.15609 9.49133 7.2209 9.55152C7.29035 9.61633 7.33664 9.72744 7.33664 9.82003C7.33201 10.0191 7.15146 10.1997 6.96165 10.1997Z" fill="white"/>
</svg>
